<svg width="166" height="174" viewBox="0 0 166 174" fill="none" xmlns="http://www.w3.org/2000/svg">
<path d="M132.694 100.806C134.52 98.9802 134.52 96.0198 132.694 94.1938V94.1938C130.869 92.369 127.911 92.3677 126.084 94.1909L121.714 98.5536C114.872 105.383 103.188 100.537 103.188 90.87V64.6875C103.188 62.0987 101.089 60 98.5 60V60C95.9112 60 93.8125 62.0987 93.8125 64.6875V90.8643C93.8125 100.519 82.1358 105.349 75.3152 98.5164L70.9829 94.1763C69.1461 92.3363 66.165 92.335 64.3266 94.1734V94.1734C62.4894 96.0106 62.4894 98.9894 64.3266 100.827L84.3579 120.858C92.1683 128.668 104.832 128.668 112.642 120.858L132.694 100.806Z" fill="black"/>
<path d="M165.913 94.4367C165.913 138.067 130.543 173.437 86.9127 173.437C43.2822 173.437 35.4127 106.437 7.91269 94.4367C-19.5873 82.4365 28.9127 65.9366 86.9127 15.4366C144.913 -35.0634 165.913 50.8062 165.913 94.4367Z" fill="#010101" fill-opacity="0.09"/>
</svg>
